<?xml version="1.0" encoding="utf-8"?>
<!-- Generator: Adobe Illustrator 25.2.1, SVG Export Plug-In . SVG Version: 6.00 Build 0)  -->
<svg version="1.1" id="_x31__x2C_5" xmlns="http://www.w3.org/2000/svg" xmlns:xlink="http://www.w3.org/1999/xlink" x="0px"
	 y="0px" viewBox="0 0 512 512" style="enable-background:new 0 0 512 512;" xml:space="preserve">
<path d="M453.3,490.7H58.7C26.3,490.7,0,464.4,0,432V80c0-32.4,26.3-58.7,58.7-58.7h394.7c32.4,0,58.7,26.3,58.7,58.7v352
	C512,464.4,485.7,490.7,453.3,490.7z M58.7,53.3C44,53.3,32,65.3,32,80v352c0,14.7,12,26.7,26.7,26.7h394.7
	c14.7,0,26.7-12,26.7-26.7V80c0-14.7-12-26.7-26.7-26.7H58.7z"/>
<path d="M496,128H16c-8.8,0-16-7.2-16-16s7.2-16,16-16h480c8.8,0,16,7.2,16,16S504.8,128,496,128z"/>
<g>
	<path d="M99.8,306.2H81.3l-1.8,6H61.8l18.9-51.4h19.6l18.9,51.4h-17.6L99.8,306.2z M85.5,292.7h10.2l-5.1-16.6L85.5,292.7z"/>
	<path d="M121.7,260.9h13.9v51.4h-13.9V260.9z"/>
	<path d="M147.8,311.9c2.8,2.8,7.1,4.1,11.1,4.1c3.2,0,8.6-1.2,8.6-7.8v-2c-3.2,3.6-6.6,5-10.5,5c-8.9,0-16.3-5.9-16.3-18.6
		c0-12.4,7.2-18.6,16.3-18.6c3.9,0,7.5,1.3,10.5,4.8V275h13.9v33.2c0,16.1-13.2,19.1-22.5,19.1c-6.4,0-12.1-1.7-16.9-5.5
		L147.8,311.9z M167.5,288.7c-1.3-1.5-3.9-2.4-5.7-2.4c-3.8,0-6.9,1.8-6.9,6.3c0,4.5,3.2,6.3,6.9,6.3c1.8,0,4.4-0.8,5.7-2.4V288.7z"
		/>
	<path d="M186.6,293.6c0-10.4,7.7-19.5,20.9-19.5c13.2,0,20.9,9.1,20.9,19.5s-7.7,19.6-20.9,19.6C194.3,313.2,186.6,304,186.6,293.6
		z M214.1,293.6c0-4.1-2.4-7.2-6.7-7.2c-4.2,0-6.6,3.2-6.6,7.2c0,4.2,2.4,7.3,6.6,7.3C211.7,300.9,214.1,297.8,214.1,293.6z"/>
	<path d="M238.2,294.5c4,3.5,10,4.9,13.9,4.9c5.1,0,7.5-1.6,7.5-3.5c0-1.8-1.1-2.8-7.9-2.8c-2.2,0-6.7,0.1-7.5,0.2v-13.8
		c1,0.1,5.6,0.1,7.5,0.1c4.9,0,7.1-0.9,7.1-2.5c0-2.4-3.2-3.3-7.6-3.3c-4.4,0-9,1.5-12.5,4.5l-7.3-9.7c4.5-5,11.5-8.5,21.6-8.5
		c14.2,0,21.4,5.8,21.4,14.2c0,5.5-4.8,10.3-11.3,11.4c5.7,0.6,12.2,4.9,12.2,12c0,9.2-9,15.4-22.3,15.4c-10.2,0-17.9-3.4-22.2-8
		L238.2,294.5z"/>
	<path d="M327.5,288.4c0-6.2-3.2-8.2-7.9-8.2c-4.3,0-8.2,2.6-10.2,5.4v26.6h-6.9V275h6.9v5.2c2.5-3,7.4-6.2,13.2-6.2
		c7.9,0,11.9,4.2,11.9,12v26.1h-6.9V288.4z"/>
	<path d="M361.8,274.1c11.2,0,18.1,8.7,18.1,20.1v1.7h-29.4c0.5,6.3,5.2,11.5,12.6,11.5c3.9,0,8.2-1.5,11-4.4l3.2,4.5
		c-3.7,3.6-8.9,5.5-14.9,5.5c-11.1,0-19.2-7.9-19.2-19.6C343.2,282.8,351,274.1,361.8,274.1z M350.4,290.9h22.7
		c-0.2-4.9-3.5-11.1-11.3-11.1C354.3,279.8,350.8,285.8,350.4,290.9z"/>
	<path d="M411.7,283.7l-9.2,28.6h-7.2L383.7,275h7.2l8.5,28.3l9.3-28.3h6l9.3,28.3l8.5-28.3h7.2L428,312.2h-7.2L411.7,283.7z"/>
	<path d="M446.2,303.5c2.6,0,4.9,2.2,4.9,4.8s-2.2,4.9-4.9,4.9c-2.6,0-4.8-2.2-4.8-4.9S443.6,303.5,446.2,303.5z"/>
</g>
</svg>
