<?xml version="1.0" encoding="iso-8859-1"?>
<!-- Generator: Adobe Illustrator 19.0.0, SVG Export Plug-In . SVG Version: 6.00 Build 0)  -->
<svg xmlns="http://www.w3.org/2000/svg" xmlns:xlink="http://www.w3.org/1999/xlink" version="1.1" id="Layer_1" x="0px" y="0px" viewBox="0 0 504.587 504.587" style="enable-background:new 0 0 504.587 504.587;" xml:space="preserve" width="512" height="512">
<g>
	<g>
		<path style="fill:#27394C;" d="M230.55,125.754h207.768c19.741,0,35.744,16.003,35.744,35.744v3.151    c0,19.741-16.003,35.744-35.744,35.744H230.55c-19.741,0-35.744-16.003-35.744-35.744v-3.151    C194.806,141.757,210.809,125.754,230.55,125.754z"/>
		<path style="fill:#FFCBB3;" d="M497.09,239.044c0,20.455-15.753,37.218-35.784,38.821c-1.045,0.089-2.107,0.133-3.17,0.133    c-2.727,0-5.384-0.275-7.952-0.815H215.561c-2.568,0.54-5.225,0.815-7.952,0.815h-0.027    c-21.509-0.018-38.927-17.444-38.927-38.953c0-20.278,15.496-36.934,35.296-38.768c1.204-0.124,2.426-0.177,3.657-0.177    c1.638,0,3.241,0.097,4.826,0.292h240.876c1.585-0.195,3.188-0.292,4.826-0.292c2.311,0,4.578,0.204,6.774,0.593    C483.197,203.889,497.09,219.846,497.09,239.044z"/>
		<path style="fill:#E89876;" d="M464.911,200.692v49.34c0,9.581-1.248,18.906-3.604,27.832c-1.045,0.089-2.107,0.133-3.17,0.133    c-2.727,0-5.384-0.275-7.952-0.815H215.561c-2.568,0.54-5.225,0.815-7.952,0.815h-0.027c-2.373-8.97-3.63-18.33-3.63-27.964    v-49.757c1.204-0.124,2.426-0.177,3.657-0.177c1.638,0,3.241,0.097,4.826,0.292h240.876c1.585-0.195,3.188-0.292,4.826-0.292    C460.448,200.099,462.715,200.303,464.911,200.692z"/>
		<path style="fill:#27394C;" d="M453.309,446.483v50.394h-237.75v-50.394c0-65.652,53.219-118.879,118.871-118.879    c9.289,0,18.33,1.071,27.008,3.082c21.987,5.109,41.628,16.32,57.053,31.737C440,383.939,453.309,413.657,453.309,446.483z"/>
		<path style="fill:#3E5268;" d="M453.309,446.483v50.394H269.575v-50.394c0-56.363,39.228-103.569,91.863-115.798    c21.987,5.109,41.628,16.32,57.053,31.737C440,383.939,453.309,413.657,453.309,446.483z"/>
		<polyline style="fill:#FFFFFF;" points="276.378,367.723 334.43,485.528 392.482,367.723   "/>
		<polyline style="fill:#FC74AF;" points="283.405,373.782 334.43,438.958 385.455,373.782   "/>
		<polyline style="fill:#BBB8CC;" points="392.282,368.137 365.813,421.848 334.431,387.686 334.433,387.686 303.051,421.848     276.582,368.137   "/>
		<path style="fill:#172635;" d="M334.433,485.528v11.35h-29.2l-30.44-30.44l12.71-26.39h-29.33l-15.03-69.69    c6.9-8.29,14.92-15.61,23.82-21.75L334.433,485.528z"/>
		<path style="fill:#172635;" d="M334.427,485.528v11.35h29.2l30.44-30.44l-12.71-26.39h29.33l15.03-69.69    c-6.9-8.29-14.92-15.61-23.82-21.75L334.427,485.528z"/>
		<path style="fill:#E89876;" d="M453.309,182.84v80.953c0,57.93-41.442,106.181-96.299,116.728    c-7.305,1.408-14.859,2.143-22.58,2.143c-65.652,0-118.871-53.219-118.871-118.871V182.84    c0-65.651,53.219-118.879,118.871-118.879c7.722,0,15.275,0.735,22.58,2.143c23.776,4.569,45.028,16.223,61.481,32.675    C440,120.297,453.309,150.015,453.309,182.84z"/>
		<path style="fill:#FFCBB3;" d="M453.309,182.84v80.953c0,57.93-41.442,106.181-96.299,116.728    c-54.857-10.547-96.299-58.798-96.299-116.728V182.84c0-57.93,41.442-106.19,96.299-116.736    c23.776,4.569,45.028,16.223,61.481,32.675C440,120.297,453.309,150.015,453.309,182.84z"/>
		<path style="fill:#3E5268;" d="M446.242,8.049l-53.33,53.33c-4.517-11.093-15.392-18.921-28.108-18.921    c-10.435,0-19.636,5.269-25.099,13.289c-13.937-17.17-35.204-28.145-59.045-28.145c-42.002,0-76.052,34.05-76.052,76.052    s34.05,76.052,76.052,76.052c17.546,0,33.692-5.958,46.56-15.939c37.768,21.646,86.764,16.361,119.023-15.897    C484.852,109.259,484.852,46.659,446.242,8.049z"/>
		<path style="fill:#27394C;" d="M250.244,103.654c0,34.048,22.377,62.878,53.224,72.566c-7.186,2.268-14.857,3.485-22.81,3.485    c-42.002,0-76.051-34.048-76.051-76.05s34.049-76.05,76.051-76.05c7.953,0,15.607,1.217,22.81,3.485    C272.621,40.776,250.244,69.606,250.244,103.654z"/>
		<polygon style="fill:#FC74AF;" points="348.51,456.948 334.43,485.528 320.35,456.948 334.43,438.958   "/>
		<path style="fill:#FC74AF;" d="M354.959,294.207c0-11.336-9.189-13.524-20.525-13.524c-11.336,0-20.525,2.189-20.525,13.524    c0,11.336,9.189,20.525,20.525,20.525C345.77,314.732,354.959,305.543,354.959,294.207z"/>
		<g>
			<path style="fill:#E89876;" d="M154.762,399.328v32.261h-26.72v-32.261c0-7.38,5.98-13.36,13.36-13.36c2.06,0,4.02,0.47,5.76,1.3     C151.651,389.418,154.762,394.008,154.762,399.328z"/>
			<path style="fill:#FFCBB3;" d="M154.762,399.328v17.26h-15.2v-17.26c0-5.32,3.1-9.91,7.6-12.06     C151.651,389.418,154.762,394.008,154.762,399.328z"/>
			<g>
				<polygon style="fill:#3E5268;" points="114.758,460.428 150.663,496.574 240.244,496.574 159.559,416.588 132.676,442.51           "/>
				<path style="fill:#FFCBB3;" d="M159.56,416.595l-21.98,21.5l-22.82,22.33l-30.27-6.45c-4.36-0.93-8.1-3.32-10.75-6.6      c-0.29-0.36-0.58-0.74-0.84-1.13c-2.13-3.07-3.36-6.8-3.36-10.76c0-10.43,8.46-18.89,18.9-18.89H159.56z"/>
				<path style="fill:#E89876;" d="M137.58,438.095l-22.82,22.33l-30.27-6.45c-4.36-0.93-8.1-3.32-10.75-6.6      c-0.29-0.36-0.58-0.74-0.84-1.13c3.4-4.93,9.09-8.15,15.54-8.15H137.58z"/>
				<polygon style="fill:#27394C;" points="114.758,460.428 150.663,496.574 186.5,496.574 132.676,442.51     "/>
			</g>
		</g>
		<g>
			<path style="fill:#96EFFF;" d="M7.5,37.575v158.889c0,16.494,13.371,29.866,29.866,29.866h146.061l47.262,48.188     c7.025,7.163,19.2,2.189,19.2-7.844v-40.344V37.575c0-16.494-13.371-29.866-29.866-29.866H37.366     C20.871,7.709,7.5,21.081,7.5,37.575z"/>
		</g>
	</g>
	<g>
		<path d="M282.646,255.264c4.142,0,7.5-3.358,7.5-7.5v-29.22c0-4.142-3.358-7.5-7.5-7.5s-7.5,3.358-7.5,7.5v29.22    C275.146,251.906,278.504,255.264,282.646,255.264z"/>
		<path d="M386.222,255.264c4.142,0,7.5-3.358,7.5-7.5v-29.22c0-4.142-3.358-7.5-7.5-7.5s-7.5,3.358-7.5,7.5v29.22    C378.722,251.906,382.08,255.264,386.222,255.264z"/>
		<path d="M458.936,285.478c25.245-0.431,45.652-21.088,45.652-46.433c0-21.535-14.737-39.689-34.656-44.922    c7.321-7.876,11.628-18.37,11.628-29.474v-3.15c0-11.634-4.724-22.697-12.876-30.756c23.197-40.613,17.49-93.369-17.138-127.997    c-2.929-2.929-7.678-2.929-10.606,0l-46.503,46.502c-7.054-8.907-17.852-14.289-29.634-14.289c-9.371,0-18.28,3.467-25.135,9.558    c-15.601-15.613-36.665-24.418-59.004-24.418c-8.865,0-17.502,1.362-25.777,4.054c-5.405-13.99-18.989-23.943-34.862-23.943    H75.264c-4.142,0-7.5,3.358-7.5,7.5s3.358,7.5,7.5,7.5h144.759c12.332,0,22.365,10.033,22.365,22.366v229.099    c0,2.244-1.61,3.145-2.302,3.427c-0.691,0.283-2.472,0.767-4.043-0.835l-47.262-48.188c-1.411-1.438-3.34-2.249-5.354-2.249    H37.366C25.033,218.829,15,208.796,15,196.464V37.575c0-12.333,10.033-22.366,22.366-22.366h7.896c4.142,0,7.5-3.358,7.5-7.5    s-3.358-7.5-7.5-7.5h-7.896C16.762,0.209,0,16.971,0,37.575v158.889c0,20.603,16.762,37.365,37.366,37.365h124.136    c-0.194,1.727-0.3,3.467-0.3,5.219c0,25.613,20.837,46.45,46.45,46.45c0.757,0,1.513-0.022,2.267-0.058    c4.706,27.161,18.108,51.379,37.23,69.666c-24.936,23.811-39.087,56.65-39.087,91.382v7.617l-43.223-42.841    c-0.76-0.753-1.643-1.306-2.582-1.668v-10.273c0-11.501-9.356-20.857-20.857-20.857s-20.857,9.357-20.857,20.857v9.767H88.436    c-14.556,0-26.398,11.842-26.398,26.398c0,12.377,8.786,23.235,20.891,25.817l28.082,5.991l34.333,34.562    c1.408,1.417,3.323,2.214,5.321,2.214l302.648,0.304c4.142,0,7.5-3.358,7.5-7.5v-50.39c0-4.142-3.358-7.5-7.5-7.5    s-7.5,3.358-7.5,7.5v42.89h-64.075l17.638-17.637c2.254-2.253,2.837-5.685,1.454-8.557l-7.528-15.635h17.386    c3.533,0,6.587-2.466,7.332-5.919l11.473-53.206c6.175,10.089,10.726,21.118,13.425,32.719c0.806,3.463,3.889,5.802,7.298,5.802    c0.563,0,1.134-0.064,1.706-0.197c4.034-0.939,6.544-4.97,5.605-9.005c-5.333-22.921-16.997-43.886-33.731-60.629    c-0.665-0.665-1.344-1.327-2.034-1.985C440.957,336.736,454.245,312.435,458.936,285.478z M489.587,239.045    c0,16.503-12.777,30.068-28.957,31.345c0.113-2.184,0.178-4.38,0.178-6.588v-25.75c3.035,0.185,6.495,1.316,8.164,5.154    c1.228,2.825,3.986,4.511,6.882,4.511c0.998,0,2.013-0.2,2.986-0.624c3.799-1.651,5.54-6.07,3.888-9.868    c-4.616-10.616-13.947-13.881-21.919-14.162v-15.341C476.904,209.084,489.587,222.607,489.587,239.045z M466.56,161.498v3.15    c0,6.274-2.11,12.246-5.773,17.074c-0.099-11.348-1.69-22.535-4.754-33.333c1.406-1.588,2.757-3.208,4.051-4.858    C464.211,148.538,466.56,154.876,466.56,161.498z M333.877,60.474c1.493,1.84,3.755,2.865,6.136,2.768    c2.368-0.098,4.549-1.31,5.885-3.268c4.277-6.271,11.344-10.016,18.903-10.016c9.329,0,17.637,5.594,21.165,14.251    c0.948,2.326,2.999,4.024,5.461,4.521c2.462,0.497,5.011-0.272,6.787-2.049l47.811-47.811    c30.448,35.859,28.751,89.855-5.087,123.694c-29.089,29.089-74.318,35.132-109.988,14.696c-2.636-1.51-5.923-1.281-8.324,0.581    c-12.121,9.399-26.632,14.367-41.964,14.367c-8.045,0-15.849-1.382-23.274-4.074V39.172c7.425-2.691,15.229-4.073,23.274-4.073    C301.397,35.098,320.794,44.347,333.877,60.474z M207.651,270.498c-17.341,0-31.45-14.108-31.45-31.45    c0-1.759,0.145-3.503,0.432-5.219h3.643l27.781,28.326v1.648c0,2.241,0.061,4.468,0.177,6.681    C208.04,270.487,207.846,270.498,207.651,270.498z M224.019,278.429l1.314,1.34c3.599,3.67,8.41,5.619,13.327,5.618    c2.383,0,4.792-0.458,7.098-1.4c7.064-2.886,11.629-9.682,11.629-17.313v-82.775c7.511,2.182,15.297,3.31,23.274,3.31    c17.032,0,33.23-5.028,47.151-14.588c37.604,19.292,83.195,14.264,115.712-12.233c1.508,7.346,2.283,14.859,2.283,22.456v80.96    c0,53.321-37.941,99.312-90.22,109.356c-6.929,1.337-14.048,2.014-21.16,2.014C277.976,375.173,231.204,332.951,224.019,278.429z     M334.43,426.792l-11.841-15.125l11.844-12.893l11.841,12.89L334.43,426.792z M304.937,408.708l-12.71-25.791    c9.609,3.415,19.748,5.697,30.259,6.687L304.937,408.708z M312.303,422.862l12.602,16.097l-3.107,3.969l-9.751-19.788    L312.303,422.862z M334.43,451.127l5.272,6.736l-5.272,10.698l-5.272-10.698L334.43,451.127z M347.061,442.928l-3.107-3.969    l12.604-16.1l0.255,0.278L347.061,442.928z M363.927,408.708l-17.546-19.099c4.05-0.382,8.074-0.955,12.042-1.721    c6.258-1.202,12.332-2.863,18.196-4.935L363.927,408.708z M270.505,372.772l57.197,116.071c0.092,0.187,0.206,0.358,0.312,0.535    h-19.679l-24.481-24.481l10.397-21.594c1.119-2.324,0.965-5.06-0.407-7.244c-1.372-2.184-3.771-3.51-6.35-3.51h-23.266    l-12.967-60.132c2.333-2.617,4.794-5.14,7.388-7.549C262.441,367.718,266.401,370.355,270.505,372.772z M223.062,446.488    c0-20.776,5.745-40.786,16.307-58.063l11.473,53.204c0.745,3.454,3.799,5.919,7.332,5.919h17.386l-7.528,15.635    c-1.383,2.872-0.8,6.303,1.454,8.557l17.638,17.637h-43.473l-20.588-20.406V446.488z M135.542,399.324    c0-3.23,2.627-5.857,5.857-5.857s5.857,2.628,5.857,5.857v9.767h-11.715V399.324z M77.037,435.49    c0-6.285,5.113-11.398,11.398-11.398h39.606h13.128l-28.782,28.162l-26.331-5.617C80.831,445.522,77.037,440.834,77.037,435.49z     M125.404,460.504l34.121-33.386l62.509,61.957h-68.25L125.404,460.504z M413.187,367.72c1.522,1.523,2.985,3.095,4.411,4.695    l-12.967,60.133h-23.266c-2.58,0-4.978,1.325-6.35,3.51c-1.373,2.184-1.526,4.92-0.407,7.244l10.397,21.594l-24.481,24.481    h-19.679c0.106-0.177,0.22-0.348,0.312-0.535l57.155-115.978c4.143-2.431,8.13-5.087,11.944-7.954    C411.259,365.84,412.242,366.775,413.187,367.72z"/>
		<path d="M334.434,322.232c15.453,0,28.025-12.572,28.025-28.025c0-13.951-9.429-21.024-28.025-21.024    c-18.596,0-28.024,7.074-28.024,21.024C306.41,309.66,318.981,322.232,334.434,322.232z M334.434,288.183    c13.025,0,13.025,3.063,13.025,6.024c0,7.182-5.843,13.025-13.025,13.025c-7.182,0-13.024-5.843-13.024-13.025    C321.41,291.246,321.41,288.183,334.434,288.183z"/>
		<path d="M208.187,50.721H49.201c-4.142,0-7.5,3.358-7.5,7.5s3.358,7.5,7.5,7.5h158.986c4.142,0,7.5-3.358,7.5-7.5    S212.329,50.721,208.187,50.721z"/>
		<path d="M208.187,88.215H49.201c-4.142,0-7.5,3.358-7.5,7.5s3.358,7.5,7.5,7.5h158.986c4.142,0,7.5-3.358,7.5-7.5    S212.329,88.215,208.187,88.215z"/>
		<path d="M208.187,125.709h-22.994c-4.142,0-7.5,3.358-7.5,7.5s3.358,7.5,7.5,7.5h22.994c4.142,0,7.5-3.358,7.5-7.5    S212.329,125.709,208.187,125.709z"/>
		<path d="M49.201,140.709h105.991c4.142,0,7.5-3.358,7.5-7.5s-3.358-7.5-7.5-7.5H49.201c-4.142,0-7.5,3.358-7.5,7.5    S45.059,140.709,49.201,140.709z"/>
		<path d="M49.201,178.203h158.986c4.142,0,7.5-3.358,7.5-7.5s-3.358-7.5-7.5-7.5H49.201c-4.142,0-7.5,3.358-7.5,7.5    S45.059,178.203,49.201,178.203z"/>
	</g>
</g>















</svg>
